<svg id="Layer_1" data-name="Layer 1" xmlns="http://www.w3.org/2000/svg" viewBox="0 0 300 300"><defs><style>.cls-1{fill:#d81f2a;}.cls-2{fill:#fff;}</style></defs><title>icon</title><path class="cls-1" d="M255,119.18c0,48.24-75.21,135.26-100.49,163.14a10.65,10.65,0,0,1-16-.28C114.66,253.85,45,167.26,45,119.18a105,105,0,0,1,105-105C208,14.18,255,57.49,255,119.18Z"/><path class="cls-2" d="M206.78,157.78a14.46,14.46,0,0,0-2.77-3.19l-10.76-9.38a3.05,3.05,0,0,0-.29-.36,2.47,2.47,0,0,0-.63-.44l-6.5-5.67-30.1-26.26a6.9,6.9,0,0,0-.12-9.65,6.7,6.7,0,0,0-1.9-1.34l2.78-2.79a9.2,9.2,0,0,0,8.89-15.4L145.85,63.78a9.2,9.2,0,0,0-15.4,8.88l-27.79,27.79a9.36,9.36,0,0,0-2.38-.31,9.2,9.2,0,0,0-6.51,15.71l19.53,19.53a9.2,9.2,0,0,0,15.4-8.89l2.78-2.77a6.94,6.94,0,0,0,1.35,1.9,6.91,6.91,0,0,0,9.65.11l32.06,36.84a2.31,2.31,0,0,0,.31.39l.13.12,9.55,11c.24.28.5.55.76.81a13.66,13.66,0,0,0,9.73,4,14.15,14.15,0,0,0,1.94-.13,13.9,13.9,0,0,0,10.27-7.12A13.6,13.6,0,0,0,206.78,157.78ZM136.09,73.54ZM97,112.6m35.73,3.33-6.44,6.43-19.53-19.53,26-26,19.53,19.53-6.45,6.45-.06.06-13,13Zm8.22,4.8h0l-1.62,1.62a2.3,2.3,0,0,1-3.28-3.22l13.07-13.08a2.31,2.31,0,0,1,3.23,0,2.28,2.28,0,0,1,0,3.25L150.75,111l0,0Zm4.76,1.74,6.73-6.72L181,140.59,170.56,151Zm27.85,32,10.84-10.84,3.47,3-11.28,11.28Zm29.63,15a9.38,9.38,0,0,1-6.89,4.8,9.15,9.15,0,0,1-7.79-2.61c-.17-.18-.34-.36-.5-.55l0,0-8.38-9.63,11.74-11.73,9.61,8.38,0,0a9.77,9.77,0,0,1,1.9,2.18A9.12,9.12,0,0,1,203.22,169.43Z"/></svg>