<svg id="Layer_1" data-name="Layer 1" xmlns="http://www.w3.org/2000/svg" viewBox="0 0 300 300"><defs><style>.cls-1{fill:#d81f2a;}.cls-2{fill:#fff;}</style></defs><title>icon</title><path class="cls-1" d="M255,119.18c0,48.24-75.21,135.26-100.49,163.14a10.65,10.65,0,0,1-16-.28C114.66,253.85,45,167.26,45,119.18a105,105,0,0,1,105-105C208,14.18,255,57.49,255,119.18Z"/><path class="cls-2" d="M166.78,81.74a3.47,3.47,0,0,0-3.47-3.48H128.59a3.48,3.48,0,0,0-3.47,3.48v27.77a3.47,3.47,0,0,0,3.47,3.47h34.72a3.47,3.47,0,0,0,3.47-3.47Z"/><path class="cls-2" d="M206.61,85.52l-13.85-6.94a3.46,3.46,0,0,0-3.07,6.21L195,87.42a3.55,3.55,0,0,0-.32,1.21c0,4.52,3.39,8.34,6.86,9.77v42.3a3.47,3.47,0,1,1-6.94,0V112.93c0-8.38-6.95-15.39-13.89-17V74.74A13.71,13.71,0,0,0,167,60.91H125.29a14,14,0,0,0-14.05,13.83v77.7l-5,2.52a3.47,3.47,0,0,0-1.92,3.1v10.42a3.66,3.66,0,0,0,3.64,3.52h76.38a3.37,3.37,0,0,0,3.3-3.52V158.06a3.46,3.46,0,0,0-1.91-3.1l-5-2.52V103.15c3.47,1.44,6.94,5.26,6.94,9.78V140.7a10.42,10.42,0,1,0,20.83,0V88.63A3.41,3.41,0,0,0,206.61,85.52Zm-25.94,79.54H111.24v-4.85l5-2.51a3.47,3.47,0,0,0,1.92-3.11V74.74a7,7,0,0,1,7.11-6.89H167a6.77,6.77,0,0,1,6.78,6.89v79.85a3.47,3.47,0,0,0,1.92,3.11l5,2.51Z"/></svg>