<svg id="Layer_1" data-name="Layer 1" xmlns="http://www.w3.org/2000/svg" viewBox="0 0 300 300"><defs><style>.cls-1{fill:#d81f2a;}.cls-2{fill:#fdfeff;}</style></defs><title>icon</title><path class="cls-1" d="M255,119.18c0,48.24-75.21,135.26-100.49,163.14a10.65,10.65,0,0,1-16-.28C114.66,253.85,45,167.26,45,119.18a105,105,0,0,1,105-105C208,14.18,255,57.49,255,119.18Z"/><path class="cls-2" d="M197.4,134.13s-1.51,15.4-16.15,22.41l8.76,1.62s-15.39,19.78-28.54,12.9c-12-6.26-8.51-70.47-7.76-81.74h9.39a8.26,8.26,0,1,0,0-16.52h-9.89V69.92a17.78,17.78,0,1,0-13,0V72.8h-9.89a8.26,8.26,0,0,0,0,16.52h9.39c.75,11.27,4.25,75.48-7.77,81.74-13.14,6.88-28.53-12.9-28.53-12.9l8.76-1.62C97.51,149.53,96,134.13,96,134.13c-11.39,20.91,0,36.93,0,36.93l3.26-9.77s5.88,17.4,22.78,23.54c20.65,7.5,24.53,18.64,24.53,18.64s3.88-11,24.53-18.64c17-6.14,22.78-23.54,22.78-23.54l3.26,9.77C197.4,171.06,208.79,155,197.4,134.13ZM136.57,53.28A10.14,10.14,0,1,1,146.7,63.41,10.09,10.09,0,0,1,136.57,53.28Z"/></svg>